<svg width="52" height="52" viewBox="0 0 52 52" fill="none" xmlns="http://www.w3.org/2000/svg">
<g clip-path="url(#clip0_575_2019)">
<path d="M51.9056 25.9975C51.9056 11.6395 40.266 0 25.9081 0C11.5502 0 -0.0893555 11.6395 -0.0893555 25.9975C-0.0893555 38.9734 9.41759 49.7289 21.846 51.6791V33.5123H15.2451V25.9975H21.846V20.2699C21.846 13.7543 25.7273 10.1553 31.6657 10.1553C34.51 10.1553 37.4851 10.663 37.4851 10.663V17.0608H34.207C30.9774 17.0608 29.9702 19.0649 29.9702 21.1209V25.9975H37.1804L36.0278 33.5123H29.9702V51.6791C42.3986 49.7289 51.9056 38.9736 51.9056 25.9975Z" fill="#1877F2"/>
<path d="M36.0274 33.5114L37.18 25.9965H29.9697V21.1199C29.9697 19.0637 30.9769 17.0599 34.2065 17.0599H37.4846V10.6621C37.4846 10.6621 34.5096 10.1543 31.6651 10.1543C25.7269 10.1543 21.8455 13.7533 21.8455 20.2689V25.9965H15.2446V33.5114H21.8455V51.6781C23.1893 51.8887 24.5475 51.9943 25.9076 51.9939C27.2678 51.9943 28.626 51.8887 29.9697 51.6781V33.5114H36.0274Z" fill="white"/>
</g>
<defs>
<clipPath id="clip0_575_2019">
<rect width="52" height="52" fill="white"/>
</clipPath>
</defs>
</svg>
