<svg width="93" height="93" viewBox="0 0 93 93" fill="none" xmlns="http://www.w3.org/2000/svg">
<path fill-rule="evenodd" clip-rule="evenodd" d="M46.5 45.5312C47.2708 45.5312 48.01 45.8374 48.555 46.3825C49.1001 46.9275 49.4062 47.6667 49.4062 48.4375V51.3438H52.3125C53.0833 51.3438 53.8225 51.6499 54.3675 52.195C54.9126 52.74 55.2188 53.4792 55.2188 54.25C55.2188 55.0208 54.9126 55.76 54.3675 56.305C53.8225 56.8501 53.0833 57.1562 52.3125 57.1562H49.4062V60.0625C49.4062 60.8333 49.1001 61.5725 48.555 62.1175C48.01 62.6626 47.2708 62.9688 46.5 62.9688C45.7292 62.9688 44.99 62.6626 44.445 62.1175C43.8999 61.5725 43.5938 60.8333 43.5938 60.0625V57.1562H40.6875C39.9167 57.1562 39.1775 56.8501 38.6325 56.305C38.0874 55.76 37.7812 55.0208 37.7812 54.25C37.7812 53.4792 38.0874 52.74 38.6325 52.195C39.1775 51.6499 39.9167 51.3438 40.6875 51.3438H43.5938V48.4375C43.5938 47.6667 43.8999 46.9275 44.445 46.3825C44.99 45.8374 45.7292 45.5312 46.5 45.5312Z" fill="black"/>
<path fill-rule="evenodd" clip-rule="evenodd" d="M46.2985 4.84375C42.8149 4.84375 39.9125 4.84375 37.6108 5.15375C35.1773 5.47925 32.9801 6.2 31.217 7.96313C29.45 9.73013 28.7293 11.9273 28.4038 14.3569C28.0938 16.6625 28.0938 19.5688 28.0938 23.0485V23.3508C20.2624 23.6065 15.5581 24.521 12.2915 27.7915C7.75 32.3291 7.75 39.6374 7.75 54.25C7.75 68.8626 7.75 76.1709 12.2915 80.7085C16.833 85.2462 24.1374 85.25 38.75 85.25H54.25C68.8626 85.25 76.1709 85.25 80.7085 80.7085C85.2461 76.167 85.25 68.8626 85.25 54.25C85.25 39.6374 85.25 32.3291 80.7085 27.7915C77.4419 24.521 72.7376 23.6065 64.9063 23.3508V23.0485C64.9063 19.5688 64.9063 16.6625 64.5963 14.3608C64.2708 11.9273 63.55 9.73013 61.783 7.967C60.0199 6.2 57.8228 5.47925 55.3893 5.15375C53.0875 4.84375 50.1813 4.84375 46.7015 4.84375H46.2985ZM59.0938 23.2578V23.25C59.0938 19.5145 59.086 17.0035 58.838 15.1319C58.5939 13.3455 58.1793 12.5783 57.6755 12.0745C57.1718 11.5708 56.4045 11.1561 54.6143 10.912C52.7465 10.664 50.2355 10.6563 46.5 10.6563C42.7645 10.6563 40.2535 10.664 38.3819 10.9159C36.5955 11.1561 35.8283 11.5708 35.3245 12.0784C34.8208 12.586 34.4061 13.3455 34.162 15.1319C33.9179 17.0035 33.9063 19.5145 33.9063 23.25V23.2578C35.4227 23.2526 37.0373 23.25 38.75 23.25H54.25C55.9602 23.25 57.5748 23.2526 59.0938 23.2578ZM62 54.25C62 58.3609 60.367 62.3034 57.4602 65.2102C54.5534 68.117 50.6109 69.75 46.5 69.75C42.3892 69.75 38.4467 68.117 35.5399 65.2102C32.633 62.3034 31 58.3609 31 54.25C31 50.1392 32.633 46.1967 35.5399 43.2899C38.4467 40.383 42.3892 38.75 46.5 38.75C50.6109 38.75 54.5534 40.383 57.4602 43.2899C60.367 46.1967 62 50.1392 62 54.25Z" fill="black"/>
</svg>
