<svg width="93" height="93" viewBox="0 0 93 93" fill="none" xmlns="http://www.w3.org/2000/svg">
<path d="M46.5 65.875C47.5979 65.875 48.5189 65.503 49.2629 64.759C50.0069 64.015 50.3776 63.0953 50.375 62V46.5C50.375 45.4021 50.003 44.4824 49.259 43.741C48.515 42.9996 47.5953 42.6276 46.5 42.625C45.4047 42.6224 44.485 42.9944 43.741 43.741C42.997 44.4876 42.625 45.4072 42.625 46.5V62C42.625 63.0979 42.997 64.0189 43.741 64.7629C44.485 65.5069 45.4047 65.8776 46.5 65.875ZM46.5 34.875C47.5979 34.875 48.5189 34.503 49.2629 33.759C50.0069 33.015 50.3776 32.0953 50.375 31C50.3724 29.9047 50.0004 28.985 49.259 28.241C48.5176 27.497 47.5979 27.125 46.5 27.125C45.4021 27.125 44.4824 27.497 43.741 28.241C42.9996 28.985 42.6276 29.9047 42.625 31C42.6224 32.0953 42.9944 33.0163 43.741 33.7629C44.4876 34.5095 45.4073 34.8802 46.5 34.875ZM46.5 85.25C41.1396 85.25 36.1021 84.2322 31.3875 82.1965C26.6729 80.1608 22.5719 77.4005 19.0844 73.9156C15.5969 70.4307 12.8366 66.3297 10.8035 61.6125C8.77042 56.8953 7.75259 51.8578 7.75 46.5C7.74742 41.1422 8.76526 36.1047 10.8035 31.3875C12.8418 26.6703 15.602 22.5693 19.0844 19.0844C22.5667 15.5995 26.6678 12.8392 31.3875 10.8035C36.1073 8.76783 41.1448 7.75 46.5 7.75C51.8553 7.75 56.8928 8.76783 61.6125 10.8035C66.3323 12.8392 70.4333 15.5995 73.9156 19.0844C77.398 22.5693 80.1595 26.6703 82.2004 31.3875C84.2412 36.1047 85.2578 41.1422 85.25 46.5C85.2423 51.8578 84.2244 56.8953 82.1965 61.6125C80.1686 66.3297 77.4083 70.4307 73.9156 73.9156C70.423 77.4005 66.3219 80.1621 61.6125 82.2004C56.9031 84.2386 51.8656 85.2552 46.5 85.25Z" fill="black"/>
</svg>
