<svg width="93" height="93" viewBox="0 0 93 93" fill="none" xmlns="http://www.w3.org/2000/svg">
<g clip-path="url(#clip0_192_2839)">
<path d="M86.2576 12.9812C85.8938 12.5559 85.4422 12.2144 84.9338 11.9803C84.4254 11.7462 83.8723 11.625 83.3126 11.625H48.4376C47.8874 11.6257 47.3437 11.7435 46.8426 11.9707C46.3415 12.1979 45.8945 12.5292 45.5314 12.9425C45.1673 13.3571 44.8961 13.8447 44.7357 14.3727C44.5753 14.9006 44.5295 15.4567 44.6014 16.0038L48.4764 45.0662C48.5425 45.5751 48.7083 46.066 48.9641 46.5108C49.22 46.9556 49.5609 47.3457 49.9675 47.6587C50.3741 47.9718 50.8384 48.2017 51.3339 48.3353C51.8293 48.4689 52.3462 48.5037 52.8551 48.4375C53.364 48.3713 53.8548 48.2056 54.2997 47.9498C54.7445 47.6939 55.1346 47.3529 55.4476 46.9463C55.7607 46.5397 55.9906 46.0754 56.1242 45.58C56.2578 45.0845 56.2925 44.5676 56.2264 44.0588L53.0876 20.46C53.0657 20.3276 53.0753 20.192 53.1157 20.064C53.1561 19.9361 53.2262 19.8195 53.3201 19.7238C53.4015 19.625 53.5015 19.5433 53.6146 19.4835C53.7277 19.4236 53.8515 19.3868 53.9789 19.375H77.5001C77.6422 19.3671 77.784 19.3948 77.9126 19.4557C78.0412 19.5167 78.1525 19.6088 78.2364 19.7238C78.331 19.8271 78.4011 19.9504 78.4413 20.0846C78.4816 20.2188 78.491 20.3604 78.4689 20.4987L74.2451 45.9575C74.0755 46.9852 74.3212 48.0382 74.928 48.8848C75.5348 49.7314 76.453 50.3023 77.4807 50.4719C77.9896 50.5558 78.51 50.5387 79.0123 50.4216C79.5146 50.3044 79.9889 50.0895 80.4081 49.789C81.2547 49.1822 81.8255 48.264 81.9951 47.2362L87.1876 16.2363C87.289 15.6587 87.258 15.0657 87.0969 14.5018C86.9358 13.938 86.6488 13.4181 86.2576 12.9812Z" fill="black"/>
<path d="M73.625 54.2503H50.375C50.1947 54.2568 50.0167 54.2084 49.8644 54.1116C49.7122 54.0147 49.593 53.8739 49.5225 53.7078L45.8025 46.5003C45.6619 46.2072 45.4497 45.9542 45.1856 45.7646C44.9215 45.575 44.614 45.4548 44.2913 45.4153C43.9655 45.3778 43.6356 45.4219 43.3312 45.5437C43.0268 45.6655 42.7575 45.861 42.5475 46.1128L35.2625 55.0641C34.6631 55.6992 33.8473 56.0864 32.9763 56.1491H29.1013C28.8403 56.1438 28.5809 56.1913 28.3388 56.2888C28.0966 56.3862 27.8767 56.5316 27.6921 56.7162C27.5075 56.9007 27.3621 57.1207 27.2647 57.3628C27.1672 57.605 27.1197 57.8643 27.125 58.1253V81.3753C27.1187 81.6772 27.1859 81.976 27.321 82.2461C27.456 82.5161 27.6547 82.7493 27.9 82.9253C36.8125 89.6291 43.71 93.0003 48.4375 93.0003H69.9437C71.631 93.2858 73.3631 92.9034 74.7734 91.9343C76.1837 90.9651 77.1616 89.4852 77.5 87.8078C79.3879 78.6526 80.6823 69.385 81.375 60.0628C81.375 57.1566 78.7012 54.2503 73.625 54.2503ZM18.7162 52.3128H6.78125C6.52432 52.3128 6.27792 52.4149 6.09624 52.5966C5.91456 52.7782 5.8125 53.0246 5.8125 53.2816V88.1566C5.8125 88.4135 5.91456 88.6599 6.09624 88.8416C6.27792 89.0232 6.52432 89.1253 6.78125 89.1253H18.7162C19.0403 89.1634 19.3688 89.1328 19.6803 89.0356C19.9917 88.9384 20.2793 88.7767 20.5242 88.5611C20.769 88.3455 20.9658 88.0807 21.1016 87.784C21.2374 87.4873 21.3093 87.1653 21.3125 86.8391V54.5991C21.3093 54.2728 21.2374 53.9508 21.1016 53.6541C20.9658 53.3575 20.769 53.0927 20.5242 52.877C20.2793 52.6614 19.9917 52.4997 19.6803 52.4025C19.3688 52.3053 19.0403 52.2747 18.7162 52.3128ZM60.0625 34.8753C60.0625 36.4169 60.6749 37.8953 61.7649 38.9854C62.855 40.0754 64.3334 40.6878 65.875 40.6878C67.4166 40.6878 68.895 40.0754 69.9851 38.9854C71.0751 37.8953 71.6875 36.4169 71.6875 34.8753C71.6875 33.3337 71.0751 31.8553 69.9851 30.7653C68.895 29.6752 67.4166 29.0628 65.875 29.0628C64.3334 29.0628 62.855 29.6752 61.7649 30.7653C60.6749 31.8553 60.0625 33.3337 60.0625 34.8753ZM38.75 42.6253C39.3155 42.6326 39.8758 42.516 40.3914 42.2838C40.9071 42.0515 41.3657 41.7091 41.7349 41.2808C42.1042 40.8524 42.3752 40.3484 42.529 39.8042C42.6828 39.2599 42.7155 38.6886 42.625 38.1303L37.7037 8.87407C37.6083 8.62455 37.6083 8.3486 37.7037 8.09907C37.822 7.94143 37.9855 7.8236 38.1724 7.76128C38.3593 7.69897 38.5608 7.69515 38.75 7.75032H69.75C70.7777 7.75032 71.7633 7.34206 72.49 6.61536C73.2167 5.88866 73.625 4.90304 73.625 3.87532C73.625 2.84761 73.2167 1.86199 72.49 1.13528C71.7633 0.40858 70.7777 0.000322294 69.75 0.000322294H32.9375C32.372 -0.00697144 31.8117 0.109612 31.2961 0.341887C30.7804 0.574162 30.3218 0.916498 29.9526 1.34486C29.5833 1.77322 29.3123 2.27722 29.1585 2.82148C29.0047 3.36574 28.972 3.93705 29.0625 4.49532L34.875 39.3703C35.0235 40.2872 35.4965 41.1203 36.2078 41.7177C36.919 42.3152 37.8212 42.6373 38.75 42.6253Z" fill="black"/>
</g>
<defs>
<clipPath id="clip0_192_2839">
<rect width="93" height="93" fill="white"/>
</clipPath>
</defs>
</svg>
