<svg width="93" height="93" viewBox="0 0 93 93" fill="none" xmlns="http://www.w3.org/2000/svg">
<path fill-rule="evenodd" clip-rule="evenodd" d="M22.5874 35.2044C27.2529 34.8866 31.5057 37.9672 32.2148 42.9156C32.612 45.6882 32.9375 49.6562 32.9375 55.2187C32.9375 60.7832 32.612 64.7513 32.2148 67.5238C31.4728 72.7047 26.8441 75.8376 21.9267 75.1653C17.3406 74.5376 12.8224 73.2898 9.90064 72.3792C6.60301 71.3523 3.84207 68.7231 3.01864 65.0729C2.29761 61.8378 1.93505 58.5332 1.93751 55.2187C1.93751 51.1732 2.48001 47.7632 3.01864 45.3666C3.74132 42.16 5.95783 39.7439 8.71876 38.5059C8.85826 18.7744 25.7688 2.90625 46.5 2.90625C67.2313 2.90625 84.1418 18.7744 84.2813 38.5059C87.0422 39.7439 89.2587 42.16 89.9814 45.3646C90.522 47.7632 91.0625 51.1732 91.0625 55.2187C91.0625 59.2642 90.52 62.6742 89.9814 65.0729C89.2006 68.5371 86.676 71.0791 83.6031 72.2087C81.5533 78.9299 77.4806 83.576 71.1644 86.3951C64.9063 89.1851 56.6486 90.0899 46.5 90.0899C45.4723 90.0899 44.4867 89.6816 43.76 88.9549C43.0333 88.2282 42.625 87.2426 42.625 86.2149C42.625 85.1872 43.0333 84.2015 43.76 83.4748C44.4867 82.7481 45.4723 82.3399 46.5 82.3399C56.4394 82.3399 63.3156 81.4099 68.0063 79.3174C70.525 78.1936 72.4625 76.7153 73.9156 74.7022C72.9779 74.8779 72.0311 75.0329 71.0753 75.1673C66.1559 75.8376 61.5273 72.7047 60.7871 67.5238C60.388 64.7513 60.0625 60.7813 60.0625 55.2207C60.0625 49.6562 60.388 45.6882 60.7852 42.9137C61.4943 37.9672 65.7471 34.8866 70.4146 35.2044C68.5681 24.6334 58.6229 16.4687 46.5 16.4687C34.3771 16.4687 24.43 24.6334 22.5874 35.2044ZM22.9749 42.9505C23.5077 42.8788 23.87 43.0164 24.0831 43.1714C24.2846 43.3167 24.4784 43.5647 24.5423 44.0122C24.8775 46.3566 25.1875 49.9507 25.1875 55.2187C25.1875 60.4887 24.8775 64.0809 24.5423 66.4252C24.4784 66.8728 24.2827 67.1227 24.0831 67.2681C23.87 67.4231 23.5077 67.5587 22.9749 67.487C18.9991 66.9445 14.9439 65.8324 12.2063 64.9799C11.2704 64.6892 10.7318 64.0441 10.5788 63.3698C9.98378 60.6937 9.6849 57.9602 9.68751 55.2187C9.68751 51.8552 10.1389 49.0246 10.5788 47.0696C10.7318 46.3954 11.2704 45.7502 12.2063 45.4576C14.9439 44.6051 18.9991 43.4949 22.9749 42.9505ZM68.9169 43.1714C68.7173 43.3167 68.5216 43.5647 68.4577 44.0122C68.1225 46.3566 67.8125 49.9507 67.8125 55.2187C67.8125 60.4887 68.1225 64.0809 68.4577 66.4252C68.5216 66.8728 68.7173 67.1227 68.9169 67.2681C69.13 67.4231 69.4923 67.5587 70.0251 67.487C74.0009 66.9445 78.0561 65.8324 80.7938 64.9799C81.7296 64.6892 82.2682 64.0441 82.4213 63.3698C82.8611 61.4129 83.3125 58.5842 83.3125 55.2187C83.315 52.4779 83.0161 49.7451 82.4213 47.0696C82.2682 46.3954 81.7296 45.7502 80.7938 45.4576C78.0561 44.6051 74.0009 43.4949 70.0251 42.9505C69.4923 42.8788 69.13 43.0164 68.9169 43.1714Z" fill="black"/>
</svg>
