<svg width="52" height="52" viewBox="0 0 52 52" fill="none" xmlns="http://www.w3.org/2000/svg">
<path d="M38.6285 2.22852H13.3714C7.21734 2.22852 2.22852 7.21734 2.22852 13.3714V38.6285C2.22852 44.7825 7.21734 49.7714 13.3714 49.7714H38.6285C44.7825 49.7714 49.7714 44.7825 49.7714 38.6285V13.3714C49.7714 7.21734 44.7825 2.22852 38.6285 2.22852Z" fill="url(#paint0_radial_575_2014)"/>
<path d="M38.6285 2.22852H13.3714C7.21734 2.22852 2.22852 7.21734 2.22852 13.3714V38.6285C2.22852 44.7825 7.21734 49.7714 13.3714 49.7714H38.6285C44.7825 49.7714 49.7714 44.7825 49.7714 38.6285V13.3714C49.7714 7.21734 44.7825 2.22852 38.6285 2.22852Z" fill="url(#paint1_radial_575_2014)"/>
<path d="M26.0018 7.42773C20.9582 7.42773 20.3251 7.44983 18.3443 7.53991C16.3671 7.63053 15.0176 7.94346 13.8368 8.40273C12.6152 8.87705 11.5791 9.51163 10.5469 10.5442C9.51373 11.5766 8.87914 12.6127 8.40334 13.8338C7.94277 15.0149 7.62947 16.365 7.54051 18.3412C7.45193 20.3222 7.42871 20.9555 7.42871 25.9993C7.42871 31.0432 7.451 31.6742 7.54088 33.655C7.63188 35.6322 7.94481 36.9817 8.40371 38.1625C8.8784 39.3841 9.51298 40.4202 10.5456 41.4524C11.5776 42.4856 12.6137 43.1217 13.8344 43.596C15.0161 44.0552 16.3658 44.3682 18.3426 44.4588C20.3236 44.5489 20.9561 44.571 25.9996 44.571C31.0438 44.571 31.6748 44.5489 33.6557 44.4588C35.6328 44.3682 36.9838 44.0552 38.1655 43.596C39.3866 43.1217 40.4212 42.4856 41.4531 41.4524C42.4862 40.4202 43.1206 39.3841 43.5966 38.1631C44.0531 36.9817 44.3665 35.6318 44.4594 33.6554C44.5484 31.6746 44.5716 31.0432 44.5716 25.9993C44.5716 20.9555 44.5484 20.3226 44.4594 18.3416C44.3665 16.3645 44.0531 15.0151 43.5966 13.8343C43.1206 12.6127 42.4862 11.5766 41.4531 10.5442C40.4201 9.51126 39.387 8.87668 38.1644 8.40292C36.9805 7.94346 35.6302 7.63035 33.6531 7.53991C31.672 7.44983 31.0414 7.42773 25.9961 7.42773H26.0018ZM24.3358 10.7745C24.8303 10.7737 25.3821 10.7745 26.0018 10.7745C30.9606 10.7745 31.5482 10.7923 33.5063 10.8813C35.3171 10.9641 36.2999 11.2666 36.9545 11.5209C37.8212 11.8574 38.4391 12.2598 39.0887 12.91C39.7387 13.56 40.141 14.179 40.4784 15.0457C40.7327 15.6994 41.0356 16.6822 41.118 18.493C41.207 20.4508 41.2263 21.0387 41.2263 25.9951C41.2263 30.9514 41.207 31.5396 41.118 33.4972C41.0352 35.3079 40.7327 36.2907 40.4784 36.9446C40.1419 37.8113 39.7387 38.4285 39.0887 39.0781C38.4387 39.7281 37.8216 40.1304 36.9545 40.4671C36.3006 40.7224 35.3171 41.0242 33.5063 41.107C31.5485 41.196 30.9606 41.2153 26.0018 41.2153C21.0429 41.2153 20.4551 41.196 18.4975 41.107C16.6868 41.0234 15.704 40.7209 15.0488 40.4667C14.1822 40.13 13.563 39.7277 12.913 39.0777C12.263 38.4277 11.8608 37.8102 11.5233 36.9431C11.2691 36.2892 10.9662 35.3064 10.8837 33.4957C10.7948 31.5379 10.777 30.9499 10.777 25.9904C10.777 21.0309 10.7948 20.4461 10.8837 18.4883C10.9666 16.6776 11.2691 15.6948 11.5233 15.0402C11.86 14.1734 12.263 13.5544 12.9132 12.9044C13.5634 12.2544 14.1822 11.852 15.0489 11.5147C15.7036 11.2594 16.6868 10.9576 18.4975 10.8744C20.2107 10.797 20.8746 10.7737 24.3358 10.7698V10.7745ZM35.9152 13.8581C34.6849 13.8581 33.6867 14.8554 33.6867 16.0859C33.6867 17.3163 34.6849 18.3145 35.9152 18.3145C37.1456 18.3145 38.1438 17.3163 38.1438 16.0859C38.1438 14.8556 37.1456 13.8573 35.9152 13.8573V13.8581ZM26.0018 16.462C20.735 16.462 16.4646 20.7323 16.4646 25.9993C16.4646 31.2664 20.735 35.5347 26.0018 35.5347C31.2689 35.5347 35.5377 31.2664 35.5377 25.9993C35.5377 20.7325 31.2685 16.462 26.0014 16.462H26.0018ZM26.0018 19.8087C29.4206 19.8087 32.1924 22.5802 32.1924 25.9993C32.1924 29.4182 29.4206 32.19 26.0018 32.19C22.583 32.19 19.8114 29.4182 19.8114 25.9993C19.8114 22.5802 22.5828 19.8087 26.0018 19.8087Z" fill="white"/>
<defs>
<radialGradient id="paint0_radial_575_2014" cx="0" cy="0" r="1" gradientUnits="userSpaceOnUse" gradientTransform="translate(14.8571 53.4331) rotate(-90) scale(47.1185 43.8239)">
<stop stop-color="#FFDD55"/>
<stop offset="0.1" stop-color="#FFDD55"/>
<stop offset="0.5" stop-color="#FF543E"/>
<stop offset="1" stop-color="#C837AB"/>
</radialGradient>
<radialGradient id="paint1_radial_575_2014" cx="0" cy="0" r="1" gradientUnits="userSpaceOnUse" gradientTransform="translate(-5.7351 5.65327) rotate(78.681) scale(21.0622 86.8192)">
<stop stop-color="#3771C8"/>
<stop offset="0.128" stop-color="#3771C8"/>
<stop offset="1" stop-color="#6600FF" stop-opacity="0"/>
</radialGradient>
</defs>
</svg>
