<svg width="48" height="48" viewBox="0 0 48 48" fill="none" xmlns="http://www.w3.org/2000/svg">
<path d="M32.3333 13.5155C32.3333 17.8451 27.2569 25.5606 25.0278 28.7404C24.4931 29.5016 23.5 29.5016 22.9722 28.7404C20.7431 25.5606 15.6667 17.8451 15.6667 13.5155C15.6667 8.2582 19.3958 4 24 4C28.6042 4 32.3333 8.2582 32.3333 13.5155ZM32.8889 19.8909C33.1319 19.3438 33.3542 18.7967 33.5556 18.2574C33.5903 18.1623 33.625 18.0592 33.6597 17.964L41.7153 14.2847C42.8125 13.7851 44 14.705 44 16.053V37.5264C44 38.3035 43.5833 39.0013 42.9514 39.2947L32.8889 43.8859V19.8909ZM13.5556 14.9667C13.7222 16.0847 14.0556 17.2107 14.4444 18.2574C14.6458 18.7967 14.8681 19.3438 15.1111 19.8909V39.826L6.28472 43.8622C5.1875 44.3617 4 43.4419 4 42.0939V20.6205C4 19.8434 4.41667 19.1456 5.04861 18.8522L13.5625 14.9667H13.5556ZM26.7639 30.3263C27.7292 28.9466 29.2431 26.7025 30.6667 24.2205V43.989L17.3333 39.6357V24.2205C18.7569 26.7025 20.2708 28.9466 21.2361 30.3263C22.6597 32.3563 25.3403 32.3563 26.7639 30.3263ZM24 16.053C24.7367 16.053 25.4433 15.7188 25.9642 15.124C26.4851 14.5292 26.7778 13.7224 26.7778 12.8812C26.7778 12.0399 26.4851 11.2332 25.9642 10.6383C25.4433 10.0435 24.7367 9.70932 24 9.70932C23.2633 9.70932 22.5567 10.0435 22.0358 10.6383C21.5149 11.2332 21.2222 12.0399 21.2222 12.8812C21.2222 13.7224 21.5149 14.5292 22.0358 15.124C22.5567 15.7188 23.2633 16.053 24 16.053Z" fill="black"/>
</svg>
