<svg width="48" height="48" viewBox="0 0 48 48" fill="none" xmlns="http://www.w3.org/2000/svg">
<path d="M38.6 33.8C39.4 32.4 40 30.8 40 29C40 24 36 20 31 20C26 20 22 24 22 29C22 34 26 38 31 38C32.8 38 34.4 37.4 35.8 36.6L42.2 43L45 40.2L38.6 33.8ZM31 34C28.2 34 26 31.8 26 29C26 26.2 28.2 24 31 24C33.8 24 36 26.2 36 29C36 31.8 33.8 34 31 34ZM24 40V44C12.96 44 4 35.04 4 24C4 12.96 12.96 4 24 4C33.68 4 41.74 10.88 43.6 20H39.46C38.8362 17.5837 37.6559 15.3468 36.0133 13.468C34.3707 11.5893 32.3114 10.1208 30 9.18V10C30 12.2 28.2 14 26 14H22V18C22 19.1 21.1 20 20 20H16V24H20V30H18L8.42 20.42C8.16 21.58 8 22.76 8 24C8 32.82 15.18 40 24 40Z" fill="black"/>
</svg>
